<svg width="194" height="243" viewBox="0 0 194 243" fill="none" xmlns="http://www.w3.org/2000/svg">
<g clip-path="url(#clip0_1_19)">
<path d="M55.2 68.84C55.2 57.92 61.88 48.4 78.24 44.08C87.8 41.56 94.68 33.28 94.68 23.44V22.04C94.68 8 81.76 -2.32 68 0.440002C22.48 9.6 0.440002 38.28 0.440002 71.52C0.440002 159.92 138.84 129.32 138.84 173.88C138.84 185.24 130.76 194.4 111.68 197.88C100.92 199.84 92.92 208.88 92.92 219.8C92.92 233.24 104.84 243.76 118.16 241.8C168.84 234.32 193.52 204.2 193.52 169.8C193.52 82.44 55.16 112.68 55.16 68.84H55.2Z" fill="#5484F3"/>
<path d="M39.4 189.32C39.4 197.96 32.4 205 23.72 205C15.04 205 8.04 198 8.04 189.32C8.04 180.64 15.04 173.64 23.72 173.64C32.4 173.64 39.4 180.64 39.4 189.32Z" fill="#5484F3"/>
<path d="M19.56 164.04C24.4201 164.04 28.36 160.1 28.36 155.24C28.36 150.38 24.4201 146.44 19.56 146.44C14.6999 146.44 10.76 150.38 10.76 155.24C10.76 160.1 14.6999 164.04 19.56 164.04Z" fill="#5484F3"/>
<path d="M81.8 219.88C81.8 232.12 71.88 242.04 59.64 242.04C47.4 242.04 37.48 232.12 37.48 219.88C37.48 207.64 47.4 197.72 59.64 197.72C71.88 197.72 81.8 207.64 81.8 219.88Z" fill="#5484F3"/>
<path d="M149.24 52.72C149.24 44.08 156.24 37.04 164.92 37.04C173.6 37.04 180.6 44.04 180.6 52.72C180.6 61.4 173.6 68.4 164.92 68.4C156.24 68.4 149.24 61.4 149.24 52.72Z" fill="#5484F3"/>
<path d="M169.12 95.64C173.98 95.64 177.92 91.7001 177.92 86.84C177.92 81.9799 173.98 78.04 169.12 78.04C164.26 78.04 160.32 81.9799 160.32 86.84C160.32 91.7001 164.26 95.64 169.12 95.64Z" fill="#5484F3"/>
<path d="M106.84 22.16C106.84 9.92 116.8 0 129.04 0C141.28 0 151.2 9.92 151.2 22.16C151.2 34.4 141.28 44.32 129.04 44.32C116.8 44.32 106.88 34.4 106.88 22.16H106.84Z" fill="#5484F3"/>
</g>
<defs>
<clipPath id="clip0_1_19">
<rect width="193.12" height="242.04" fill="white" transform="translate(0.440002)"/>
</clipPath>
</defs>
</svg>
