<svg width="194" height="243" viewBox="0 0 194 243" fill="none" xmlns="http://www.w3.org/2000/svg">
<g clip-path="url(#clip0_1_17)">
<path d="M38.96 189.32C38.96 197.96 31.96 205 23.28 205C14.6 205 7.60001 198 7.60001 189.32C7.60001 180.64 14.6 173.64 23.28 173.64C31.96 173.64 38.96 180.64 38.96 189.32Z" fill="#5484F3"/>
<path d="M19.12 164.04C23.9801 164.04 27.92 160.1 27.92 155.24C27.92 150.38 23.9801 146.44 19.12 146.44C14.2599 146.44 10.32 150.38 10.32 155.24C10.32 160.1 14.2599 164.04 19.12 164.04Z" fill="#5484F3"/>
<path d="M81.36 219.88C81.36 232.12 71.44 242.04 59.2 242.04C46.96 242.04 37.04 232.12 37.04 219.88C37.04 207.64 46.96 197.72 59.2 197.72C71.44 197.72 81.36 207.64 81.36 219.88Z" fill="#5484F3"/>
<path d="M148.8 52.72C148.8 44.08 155.8 37.04 164.48 37.04C173.16 37.04 180.16 44.04 180.16 52.72C180.16 61.4 173.16 68.4 164.48 68.4C155.8 68.4 148.8 61.4 148.8 52.72Z" fill="#5484F3"/>
<path d="M168.68 95.64C173.54 95.64 177.48 91.7001 177.48 86.84C177.48 81.9799 173.54 78.04 168.68 78.04C163.82 78.04 159.88 81.9799 159.88 86.84C159.88 91.7001 163.82 95.64 168.68 95.64Z" fill="#5484F3"/>
<path d="M106.4 22.16C106.4 9.92 116.36 0 128.6 0C140.84 0 150.76 9.92 150.76 22.16C150.76 34.4 140.84 44.32 128.6 44.32C116.36 44.32 106.44 34.4 106.44 22.16H106.4Z" fill="#5484F3"/>
<path d="M54.76 68.8399C54.76 57.9199 61.44 48.3999 77.8 44.0799C87.36 41.5599 94.24 33.2799 94.24 23.4399V22.0399C94.24 7.99991 81.32 -2.32009 67.56 0.43991C22.04 9.59991 0 38.2799 0 71.5199C0 159.92 138.4 129.32 138.4 173.88C138.4 185.24 130.32 194.4 111.24 197.88C100.48 199.84 92.48 208.88 92.48 219.8C92.48 233.24 104.4 243.76 117.72 241.8C168.4 234.32 193.08 204.2 193.08 169.8C193.08 82.4399 54.72 112.68 54.72 68.8399H54.76Z" fill="#5484F3"/>
</g>
<defs>
<clipPath id="clip0_1_17">
<rect width="193.12" height="242.04" fill="white"/>
</clipPath>
</defs>
</svg>
