<svg width="621" height="243" viewBox="0 0 621 243" fill="none" xmlns="http://www.w3.org/2000/svg">
<path d="M262.636 123.452H286.262L261.012 199.55C252.742 224.497 239.6 234.382 218.927 233.284V211.317C229.264 211.317 234.137 207.865 237.385 198.294L208 123.452H232.365L248.755 171.464L262.636 123.452ZM337.69 121.255C352.604 121.255 365.303 132.552 365.303 153.734V201.903H343.154V157.186C343.154 147.458 337.395 142.908 330.307 142.908C322.185 142.908 316.574 147.928 316.574 159.069V201.903H294.424V123.452H316.574V130.826C320.561 125.021 327.944 121.255 337.69 121.255ZM434.116 123.452H456.266V201.903H434.116V194.529C429.243 200.491 422.008 204.1 412.114 204.1C392.77 204.1 376.822 186.056 376.822 162.677C376.822 139.299 392.77 121.255 412.114 121.255C422.008 121.255 429.243 124.864 434.116 130.826V123.452ZM416.544 181.82C426.733 181.82 434.116 174.445 434.116 162.677C434.116 150.91 426.733 143.535 416.544 143.535C406.355 143.535 398.972 150.91 398.972 162.677C398.972 174.445 406.355 181.82 416.544 181.82ZM516.668 121.255C536.012 121.255 551.96 139.299 551.96 162.677C551.96 186.056 536.012 204.1 516.668 204.1C506.774 204.1 499.539 200.491 494.666 194.529V233.284H472.516V123.452H494.666V130.826C499.539 124.864 506.774 121.255 516.668 121.255ZM512.238 181.82C522.427 181.82 529.81 174.445 529.81 162.677C529.81 150.91 522.427 143.535 512.238 143.535C502.049 143.535 494.666 150.91 494.666 162.677C494.666 174.445 502.049 181.82 512.238 181.82ZM584.045 146.359C584.045 155.303 620.37 149.341 620.37 178.368C620.37 196.412 605.604 204.1 589.656 204.1C574.889 204.1 563.667 198.137 557.908 185.428L577.104 173.817C579.024 179.78 583.159 183.075 589.656 183.075C594.972 183.075 597.63 181.349 597.63 178.211C597.63 169.581 561.304 174.131 561.304 146.987C561.304 129.885 574.889 121.255 590.246 121.255C602.207 121.255 612.839 126.903 619.041 138.044L600.14 148.87C598.073 144.79 595.119 141.966 590.246 141.966C586.407 141.966 584.045 143.535 584.045 146.359Z" fill="#5484F3"/>
<g clip-path="url(#clip0_19_8)">
<path d="M38.96 189.32C38.96 197.96 31.96 205 23.28 205C14.6 205 7.60001 198 7.60001 189.32C7.60001 180.64 14.6 173.64 23.28 173.64C31.96 173.64 38.96 180.64 38.96 189.32Z" fill="#5484F3"/>
<path d="M19.12 164.04C23.9801 164.04 27.92 160.1 27.92 155.24C27.92 150.38 23.9801 146.44 19.12 146.44C14.2599 146.44 10.32 150.38 10.32 155.24C10.32 160.1 14.2599 164.04 19.12 164.04Z" fill="#5484F3"/>
<path d="M81.36 219.88C81.36 232.12 71.44 242.04 59.2 242.04C46.96 242.04 37.04 232.12 37.04 219.88C37.04 207.64 46.96 197.72 59.2 197.72C71.44 197.72 81.36 207.64 81.36 219.88Z" fill="#5484F3"/>
<path d="M148.8 52.72C148.8 44.08 155.8 37.04 164.48 37.04C173.16 37.04 180.16 44.04 180.16 52.72C180.16 61.4 173.16 68.4 164.48 68.4C155.8 68.4 148.8 61.4 148.8 52.72Z" fill="#5484F3"/>
<path d="M168.68 95.64C173.54 95.64 177.48 91.7001 177.48 86.84C177.48 81.9799 173.54 78.04 168.68 78.04C163.82 78.04 159.88 81.9799 159.88 86.84C159.88 91.7001 163.82 95.64 168.68 95.64Z" fill="#5484F3"/>
<path d="M106.4 22.16C106.4 9.92 116.36 0 128.6 0C140.84 0 150.76 9.92 150.76 22.16C150.76 34.4 140.84 44.32 128.6 44.32C116.36 44.32 106.44 34.4 106.44 22.16H106.4Z" fill="#5484F3"/>
<path d="M54.76 68.8399C54.76 57.9199 61.44 48.3999 77.8 44.0799C87.36 41.5599 94.24 33.2799 94.24 23.4399V22.0399C94.24 7.99991 81.32 -2.32009 67.56 0.43991C22.04 9.59991 0 38.2799 0 71.5199C0 159.92 138.4 129.32 138.4 173.88C138.4 185.24 130.32 194.4 111.24 197.88C100.48 199.84 92.48 208.88 92.48 219.8C92.48 233.24 104.4 243.76 117.72 241.8C168.4 234.32 193.08 204.2 193.08 169.8C193.08 82.4399 54.72 112.68 54.72 68.8399H54.76Z" fill="#5484F3"/>
</g>
<defs>
<clipPath id="clip0_19_8">
<rect width="193.12" height="242.04" fill="white"/>
</clipPath>
</defs>
</svg>
