<svg width="338" height="322" viewBox="0 0 338 322" fill="none" xmlns="http://www.w3.org/2000/svg">
<path fill-rule="evenodd" clip-rule="evenodd" d="M155.801 2.44317C216.158 0.143443 265.059 21.2831 302.505 65.8622C335.897 110.314 344.201 158.753 327.416 211.179C308.137 262.766 271.082 296.872 216.251 313.496C149.352 329.569 92.0362 314.034 44.3027 266.899C5.34422 222.665 -6.55437 172.47 8.60627 116.312C30.1108 55.2022 73.9742 17.9439 140.196 4.53712C145.519 4.00523 150.721 3.30703 155.801 2.44317Z" fill="#FCFCFC"/>
<path fill-rule="evenodd" clip-rule="evenodd" d="M156.31 83.6809C167.324 82.7003 177.005 85.5946 185.354 92.3645C205.361 87.3353 222.363 92.0252 236.361 106.434C240.098 111.098 242.754 116.284 244.33 121.99C260.719 134.148 263.055 148.356 251.339 164.613C252.616 173.774 250.496 182.133 244.98 189.691C237.66 195.199 230.711 201.037 224.133 207.203C226.747 214.146 229.158 221.156 231.366 228.231C231.099 229.442 230.412 230.402 229.304 231.111C225.148 233.517 221.168 236.161 217.364 239.045C210.73 228.256 203.043 218.183 194.304 208.826C187.151 207.705 180.628 205.166 174.735 201.208C159.592 207.816 145.951 205.739 133.809 194.98C121.556 199.894 109.936 198.806 98.9495 191.716C94.1853 188.826 89.8165 185.45 85.843 181.586C79.2468 172.714 77.8789 163.137 81.7382 152.855C76.507 134.432 83.187 121.93 101.777 115.348C103.666 108.795 107.56 103.571 113.459 99.6746C120.813 95.6941 128.737 93.8425 137.23 94.1198C142.521 88.7865 148.881 85.3069 156.31 83.6809Z" fill="#050505"/>
<path fill-rule="evenodd" clip-rule="evenodd" d="M156.203 93.9949C160.275 93.9303 164.338 94.0803 168.394 94.4442C170.974 95.1635 173.219 96.3686 175.131 98.0603C170.767 103.394 165.089 106.559 158.094 107.553C155.629 107.131 153.147 106.889 150.649 106.831C150.333 110.047 150.074 113.268 149.871 116.494C152.594 116.811 155.299 117.268 157.987 117.867C156.941 119.876 156.467 122.02 156.565 124.3C156.83 128.906 157.573 133.427 158.795 137.862C161.982 136.966 165.261 136.57 168.632 136.675C167.639 131.33 167.356 125.955 167.783 120.548C169.875 116.68 172.733 113.379 176.356 110.645C179.519 108.336 182.482 105.788 185.243 103.001C201.811 97.3942 216.118 100.66 228.165 112.796C231.883 117.645 234.31 123.042 235.449 128.989C247.778 135.273 250.845 144.331 244.651 156.163C240.126 152.202 236.106 147.862 232.591 143.143C230.325 137.313 229.146 131.283 229.053 125.055C225.668 125.287 222.278 125.467 218.885 125.593C218.792 131.916 219.857 138.051 222.081 144.001C221.852 144.321 221.622 144.641 221.393 144.961C213.291 144.355 205.166 143.84 197.018 143.417C196.984 146.64 196.951 149.864 196.917 153.087C204.822 153.384 212.722 153.789 220.618 154.301C224.691 154.992 228.517 156.321 232.095 158.288C235.138 161.027 237.931 163.957 240.473 167.079C242.237 178.03 237.754 185.612 227.024 189.826C224.14 195.876 219.139 199.047 212.019 199.34C211.388 199.584 210.931 200.009 210.651 200.615C213.161 206.918 215.24 213.279 216.888 219.699C211.745 212.309 205.831 205.478 199.147 199.206C193.782 198.949 188.828 197.5 184.287 194.861C190.623 189.492 197.447 184.728 204.761 180.568C206.07 180.061 207.428 179.753 208.836 179.644C211.745 180.422 214.674 181.097 217.623 181.669C218.232 178.415 218.943 175.199 219.756 172.021C216.443 171.492 213.175 170.813 209.953 169.985C204.423 170.248 199.325 171.806 194.66 174.661C186.468 180.592 178.275 186.525 170.083 192.456C158.965 197.417 149.387 195.491 141.348 186.677C140.957 180.871 141.017 175.069 141.529 169.272C142.843 164.962 145.698 161.983 150.092 160.336C148.485 157.417 146.707 154.605 144.759 151.899C139.261 153.798 135.16 157.194 132.457 162.086C125.67 157.851 118.825 153.697 111.922 149.623C110.317 151.97 108.711 154.317 107.106 156.664C106.648 157.304 106.641 157.949 107.086 158.598C113.485 162.373 119.769 166.306 125.934 170.399C129.457 174.795 130.534 179.749 129.167 185.261C121.533 188.689 113.969 188.502 106.476 184.702C102.268 181.62 98.1228 178.461 94.0398 175.225C91.6263 171.788 90.1974 168.012 89.7538 163.898C90.1404 160.022 91.3078 156.381 93.2552 152.974C86.9093 137.041 92.4331 127.106 109.826 123.168C111.622 114.021 117.105 107.954 126.277 104.966C131.49 104.743 136.684 104.797 141.859 105.128C145.154 99.6042 149.935 95.8928 156.203 93.9949Z" fill="#FAFAFA"/>
</svg>
