<svg width="334" height="318" viewBox="0 0 334 318" fill="none" xmlns="http://www.w3.org/2000/svg">
<path fill-rule="evenodd" clip-rule="evenodd" d="M152.151 0.58961C212.48 -2.33847 261.599 18.2909 299.507 62.4776C333.361 106.579 342.168 154.929 325.93 207.528C307.19 259.312 270.491 293.802 215.836 310.997C149.108 327.764 91.6341 312.827 43.4124 266.192C3.99543 222.367 -8.42518 172.298 6.14988 115.985C27.0169 54.6546 70.49 16.9416 136.569 2.84594C141.886 2.25865 147.08 1.50633 152.151 0.58961Z" fill="#FCFCFC"/>
<path fill-rule="evenodd" clip-rule="evenodd" d="M153.506 81.8177C164.509 80.7224 174.22 83.5157 182.639 90.1983C202.592 84.9611 219.642 89.4737 233.79 103.736C237.575 108.361 240.285 113.519 241.92 119.208C258.435 131.195 260.919 145.377 249.372 161.756C250.745 170.903 248.712 179.284 243.275 186.898C236.013 192.483 229.125 198.393 222.611 204.627C225.297 211.542 227.781 218.526 230.064 225.578C229.809 226.792 229.131 227.759 228.031 228.479C223.9 230.928 219.948 233.614 216.175 236.538C209.428 225.818 201.637 215.826 192.801 206.561C185.637 205.514 179.088 203.043 173.154 199.147C158.08 205.911 144.418 203.978 132.165 193.345C119.964 198.386 108.334 197.419 97.2735 190.444C92.4795 187.604 88.0758 184.273 84.0623 180.452C77.374 171.649 75.9065 162.086 79.6585 151.764C74.2358 133.397 80.7852 120.826 99.306 114.051C101.126 107.479 104.966 102.214 110.824 98.2567C118.136 94.1998 126.04 92.2658 134.536 92.4547C139.771 87.0666 146.094 83.5209 153.506 81.8177Z" fill="#050505"/>
<path fill-rule="evenodd" clip-rule="evenodd" d="M153.506 92.1323C157.577 92.0253 161.642 92.1329 165.701 92.4546C168.288 93.147 170.547 94.3287 172.476 96.0003C168.168 101.379 162.522 104.603 155.539 105.67C153.069 105.273 150.585 105.058 148.086 105.026C147.804 108.244 147.579 111.468 147.409 114.696C150.135 114.984 152.845 115.414 155.539 115.985C154.514 118.004 154.062 120.153 154.184 122.432C154.497 127.035 155.287 131.548 156.555 135.97C159.732 135.041 163.007 134.611 166.379 134.68C165.33 129.346 164.992 123.974 165.362 118.564C167.414 114.674 170.237 111.343 173.831 108.571C176.971 106.23 179.906 103.651 182.639 100.835C199.147 95.0565 213.488 98.1728 225.66 110.183C229.428 114.993 231.912 120.365 233.112 126.3C245.507 132.455 248.668 141.48 242.597 153.376C238.031 149.463 233.966 145.165 230.402 140.482C228.075 134.676 226.833 128.658 226.676 122.432C223.293 122.7 219.906 122.914 216.514 123.076C216.486 129.399 217.615 135.524 219.901 141.449C219.675 141.772 219.449 142.094 219.224 142.416C211.116 141.895 202.986 141.465 194.834 141.127C194.834 144.35 194.834 147.574 194.834 150.797C202.741 151.012 210.645 151.335 218.546 151.764C222.626 152.413 226.465 153.702 230.064 155.632C233.135 158.339 235.959 161.24 238.532 164.335C240.41 175.267 236.007 182.895 225.321 187.221C222.501 193.3 217.533 196.524 210.416 196.891C209.787 197.141 209.335 197.571 209.061 198.18C211.637 204.456 213.783 210.795 215.497 217.198C210.277 209.862 204.292 203.093 197.544 196.891C192.176 196.689 187.208 195.293 182.639 192.7C188.918 187.266 195.693 182.431 202.964 178.195C204.266 177.674 205.621 177.352 207.029 177.228C209.945 177.976 212.881 178.621 215.836 179.162C216.411 175.902 217.089 172.678 217.869 169.492C214.55 168.998 211.275 168.353 208.045 167.558C202.518 167.879 197.437 169.49 192.801 172.393C184.671 178.41 176.541 184.427 168.411 190.444C157.345 195.52 147.747 193.694 139.617 184.964C139.165 179.162 139.165 173.36 139.617 167.558C140.886 163.235 143.709 160.227 148.086 158.533C146.449 155.631 144.642 152.838 142.666 150.152C137.188 152.108 133.123 155.547 130.471 160.467C123.64 156.303 116.752 152.22 109.807 148.218C108.227 150.582 106.645 152.946 105.065 155.31C104.613 155.954 104.613 156.599 105.065 157.244C111.503 160.951 117.827 164.819 124.035 168.848C127.603 173.207 128.732 178.149 127.422 183.675C119.824 187.182 112.259 187.074 104.726 183.353C100.487 180.314 96.3088 177.199 92.1923 174.005C89.7432 170.594 88.275 166.833 87.7886 162.723C88.1348 158.844 89.2642 155.19 91.1761 151.764C84.6646 135.897 90.0846 125.905 107.436 121.787C109.136 112.622 114.556 106.497 123.696 103.414C128.907 103.137 134.1 103.137 139.279 103.414C142.516 97.8563 147.259 94.0953 153.506 92.1323Z" fill="#FAFAFA"/>
</svg>
